# xmcd
#
# Track frame offsets: 
#        150
#        14077
#        33430
#        59047
#        80065
#        98982
#        110920
#        129625
#        147060
#        162962
#        179937
#        194262
#        202212
#        213587
#
# Disc length: 3043 seconds
#
# Revision: 0
# Processed by: cddbd v1.5.2PL0 Copyright (c) Steve Scherf et al.
# Submitted via: ExactAudioCopy v1.0b3
#
DISCID=e60be10e
DTITLE=Joan Baez - Live Europe '83
DYEAR=1983
DGENRE=Country
TTITLE0=Farewell Angelina
TTITLE1=Warriors of the sun
TTITLE2=A hard rain's
TTITLE3=A gonna fall
TTITLE4=Lady Di and I
TTITLE5=Wozu sind kriege da
TTITLE6=Wenn unsere brüder kommen
TTITLE7=(For the) Children of the eighties
TTITLE8=The love inside
TTITLE9=Me and Bobby McGee
TTITLE10=No woman no cry
TTITLE11=Imagine
TTITLE12=Jaria Hamuda
TTITLE13=The land of a thousand dances
EXTD=
EXTT0=
EXTT1=
EXTT2=
EXTT3=
EXTT4=
EXTT5=
EXTT6=
EXTT7=
EXTT8=
EXTT9=
EXTT10=
EXTT11=
EXTT12=
EXTT13=
PLAYORDER=
